# xmcd
#
# Track frame offsets:
#	150
#	16077
#	45692
#	57030
#	73885
#	89755
#	102390
#	117112
#	134097
#	151867
#	173522
#
# Disc length: 2452 seconds
# Revision: 0
# Processed by: cddbd v1.5.2PL0 Copyright (c) Steve Scherf et al.
# Submitted via: dBpowerAMP V12.0
#
DISCID=9009920b
DTITLE=Bob Bennett - First Things First
DYEAR=1980
DGENRE=Religious
TTITLE0=Carpenter Gone Bad
TTITLE1=The Night Shift
TTITLE2=Whistling In The Dark
TTITLE3=The Best
TTITLE4=You're Welcome Here
TTITLE5=Forgive and Forget
TTITLE6=My Redeemer Lives (I Know My Redeemer Lives)
TTITLE7=The Garden Song
TTITLE8=I Belong To You
TTITLE9=Healings
TTITLE10=Spiritual Equation
EXTD=
EXTT0=
EXTT1=
EXTT2=
EXTT3=
EXTT4=
EXTT5=
EXTT6=
EXTT7=
EXTT8=
EXTT9=
EXTT10=
PLAYORDER=
